<svg width="21" height="21" viewBox="0 0 21 21" fill="none" xmlns="http://www.w3.org/2000/svg">
<path d="M13.0003 16.3334C13.0003 17.7141 11.881 18.8334 10.5003 18.8334C9.11954 18.8334 8.00026 17.7141 8.00026 16.3334M11.9973 5.69888C12.3603 5.32395 12.5836 4.8131 12.5836 4.25008C12.5836 3.09949 11.6508 2.16675 10.5003 2.16675C9.34966 2.16675 8.41692 3.09949 8.41692 4.25008C8.41692 4.8131 8.64026 5.32395 9.00317 5.69888M15.5003 9.83341C15.5003 8.68414 14.9735 7.58194 14.0358 6.76929C13.0981 5.95663 11.8263 5.50008 10.5003 5.50008C9.17417 5.50008 7.9024 5.95663 6.96472 6.76929C6.02704 7.58194 5.50026 8.68414 5.50026 9.83341C5.50026 11.7349 5.0287 13.1256 4.44031 14.1206C3.7697 15.2548 3.4344 15.8218 3.44764 15.9573C3.46279 16.1123 3.49069 16.1612 3.61637 16.2531C3.72623 16.3334 4.27818 16.3334 5.38208 16.3334H15.6184C16.7223 16.3334 17.2743 16.3334 17.3841 16.2531C17.5098 16.1612 17.5377 16.1123 17.5529 15.9573C17.5661 15.8218 17.2308 15.2548 16.5602 14.1206C15.9718 13.1256 15.5003 11.7349 15.5003 9.83341Z" stroke="black" stroke-width="1.66667" stroke-linecap="round" stroke-linejoin="round"/>
</svg>
