<svg width="172" height="172" viewBox="0 0 172 172" fill="none" xmlns="http://www.w3.org/2000/svg">
<g opacity="0.25">
<path d="M151.78 39.9075C151.684 40.3684 151.467 40.8208 151.115 41.225L129.654 65.9035C128.301 67.4601 126.62 68.6607 124.758 69.4398C123.158 70.1072 121.424 70.4633 119.649 70.4633H41.5817C40.0269 70.4633 38.9381 69.3573 38.6801 68.0724C38.4961 67.1505 38.7403 66.1357 39.5487 65.3703L66.8829 39.4482C68.9865 37.4513 71.7798 36.3367 74.6814 36.3367H148.884C150.415 36.3367 151.512 37.4238 151.777 38.7052H151.779V38.7138C151.858 39.1042 151.863 39.5084 151.779 39.9092L151.78 39.9075Z" fill="#B1BEC6"/>
</g>
<path d="M119.651 70.8074H41.5818C39.9891 70.8074 38.6578 69.71 38.3431 68.1397C38.1195 67.0165 38.4721 65.9157 39.3132 65.1194L66.6474 39.1972C68.8249 37.1298 71.6784 35.9911 74.6832 35.9911H148.886C150.372 35.9911 151.634 36.9526 152.047 38.3596H152.123V38.6778C152.209 39.1181 152.207 39.5567 152.118 39.9781C152.004 40.5199 151.755 41.0153 151.376 41.4504L129.916 66.129C128.55 67.6994 126.813 68.9532 124.893 69.7565C123.223 70.4531 121.46 70.8057 119.653 70.8057L119.651 70.8074ZM74.685 36.6809C71.8573 36.6809 69.1724 37.7524 67.1221 39.6978L39.7862 65.6199C39.1205 66.2511 38.8402 67.1197 39.0173 68.0055C39.2203 69.0238 40.1095 70.1194 41.5818 70.1194H119.651C121.367 70.1194 123.043 69.784 124.627 69.1235C126.45 68.3616 128.098 67.1713 129.396 65.6801L150.857 41.0015C151.158 40.6558 151.356 40.2653 151.445 39.8388C151.516 39.5034 151.517 39.156 151.449 38.8034L151.443 38.7775C151.235 37.7679 150.346 36.6826 148.887 36.6826H74.685V36.6809Z" fill="#B1BEC6"/>
<g opacity="0.5">
<path d="M124.759 69.4404V133.915C123.161 134.582 121.425 134.94 119.65 134.94H62.9936C65.6682 130.855 67.2231 125.97 67.2231 120.722C67.2231 106.362 55.5838 94.7227 41.2236 94.7227C40.3653 94.7227 39.5173 94.764 38.6797 94.8448V68.0713C38.936 69.3562 40.0264 70.4621 41.5813 70.4621H119.65C121.425 70.4621 123.161 70.1078 124.759 69.4387V69.4404Z" fill="#B1BEC6"/>
</g>
<path d="M119.651 135.283H62.3575L62.7066 134.75C65.4363 130.579 66.8793 125.727 66.8793 120.72C66.8793 106.573 55.3708 95.0645 41.2238 95.0645C40.3879 95.0645 39.5417 95.1058 38.7126 95.1849L38.3359 95.221V68.0691L39.0171 68.002C39.22 69.0202 40.1093 70.1159 41.5816 70.1159H119.649C121.369 70.1159 123.042 69.7805 124.625 69.12L125.101 68.9205V134.141L124.89 134.229C123.22 134.927 121.457 135.28 119.649 135.28L119.651 135.283ZM63.6217 134.595H119.651C121.292 134.595 122.893 134.289 124.415 133.684V69.9456C122.891 70.5166 121.29 70.8056 119.651 70.8056H41.5816C40.5513 70.8056 39.6311 70.3481 39.0222 69.5981V94.4659C39.7515 94.4057 40.4894 94.3747 41.2221 94.3747C55.7475 94.3747 67.5656 106.193 67.5656 120.718C67.5656 125.648 66.2034 130.431 63.6199 134.592L63.6217 134.595Z" fill="#B1BEC6"/>
<g opacity="0.75">
<path d="M151.781 104.366V104.381C151.679 104.842 151.468 105.296 151.115 105.7L129.655 130.379C128.301 131.936 126.621 133.136 124.758 133.912V69.4377C126.619 68.6603 128.299 67.458 129.655 65.9014L139.882 54.14L146.727 46.271L151.117 41.2228C151.469 40.8186 151.684 40.3663 151.782 39.9053V103.167C151.865 103.556 151.865 103.963 151.782 104.364L151.781 104.366Z" fill="#B1BEC6"/>
</g>
<path d="M124.415 134.43V69.2111L124.627 69.1234C126.45 68.3614 128.098 67.1712 129.396 65.6799L150.857 41.0014C151.158 40.6556 151.355 40.2652 151.445 39.8386L152.126 36.6016V103.135C152.21 103.549 152.21 103.976 152.126 104.401V104.457L152.107 104.497C151.985 105.03 151.741 105.512 151.376 105.93L129.916 130.608C128.548 132.18 126.811 133.434 124.891 134.234L124.415 134.433V134.43ZM125.103 69.6669V133.386C126.735 132.626 128.211 131.515 129.396 130.154L150.857 105.476C151.151 105.138 151.347 104.75 151.441 104.318L151.445 104.294C151.517 103.943 151.517 103.578 151.445 103.24L151.438 103.167V41.3798C151.417 41.4038 151.397 41.4279 151.376 41.452L129.916 66.1306C128.6 67.6442 126.94 68.8619 125.105 69.6669H125.103Z" fill="#B1BEC6"/>
<g opacity="0.75">
<path d="M87.2871 70.4629H72.1133V134.939H87.2871V70.4629Z" fill="#B1BEC6"/>
</g>
<path d="M87.6323 135.283H71.7705V70.1194H87.6323V135.283ZM72.4585 134.595H86.9443V70.8074H72.4585V134.595Z" fill="#B1BEC6"/>
<g opacity="0.25">
<path d="M118.256 114.888H99.6748V126.556H118.256V114.888Z" fill="#B1BEC6"/>
</g>
<path d="M118.599 126.9H99.3301V114.544H118.599V126.9ZM100.018 126.212H117.911V115.232H100.018V126.212Z" fill="#B1BEC6"/>
<g opacity="0.5">
<path d="M72.1133 70.4632L100.76 36.335H114.799L87.2888 70.4632H72.1133Z" fill="#B1BEC6"/>
</g>
<path d="M87.4518 70.8068H71.375L100.598 35.9922H115.515L87.4501 70.8068H87.4518ZM72.8508 70.1188H87.1233L114.079 36.6802H100.919L72.8508 70.1188Z" fill="#B1BEC6"/>
<g opacity="0.5">
<path d="M146.727 46.273L139.882 54.1438H120.888L127.081 46.273H146.727Z" fill="#B1BEC6"/>
</g>
<path d="M140.038 54.4878H120.179L126.914 45.9308H147.482L140.038 54.4878ZM121.596 53.7998H139.725L145.972 46.6188H127.248L121.596 53.7998Z" fill="#B1BEC6"/>
<path d="M146.727 46.2733V73.6006L139.882 81.031V54.144L146.727 46.2733Z" fill="#B1BEC6"/>
<g opacity="0.25">
<path d="M67.2236 120.722C67.2236 125.97 65.6688 130.855 62.9942 134.94C58.3519 142.033 50.335 146.722 41.2241 146.722C26.8639 146.722 15.2246 135.083 15.2246 120.722C15.2246 107.222 25.5154 96.1229 38.6803 94.8449C39.5179 94.7641 40.3659 94.7228 41.2241 94.7228C55.5827 94.7228 67.2236 106.362 67.2236 120.722Z" fill="#B1BEC6"/>
</g>
<path d="M41.2234 147.065C26.698 147.065 14.8799 135.247 14.8799 120.721C14.8799 114.134 17.324 107.828 21.7599 102.968C26.1682 98.1378 32.1642 95.1312 38.6451 94.5017C39.4965 94.4191 40.3634 94.3778 41.2217 94.3778C55.7471 94.3778 67.5652 106.196 67.5652 120.721C67.5652 125.862 66.0826 130.844 63.279 135.128C58.3873 142.603 50.1416 147.065 41.22 147.065H41.2234ZM41.2234 95.0658C40.3875 95.0658 39.5412 95.1071 38.7122 95.1862C25.5181 96.4676 15.5679 107.445 15.5679 120.721C15.5679 134.868 27.0764 146.377 41.2234 146.377C49.9111 146.377 57.9418 142.03 62.7062 134.751C65.4358 130.58 66.8789 125.728 66.8789 120.721C66.8789 106.574 55.3704 95.0658 41.2234 95.0658Z" fill="#B1BEC6"/>
<path d="M26.648 84.9547C25.1052 84.9547 23.8496 83.6991 23.8496 82.1563C23.8496 80.6134 25.1052 79.3578 26.648 79.3578C28.1909 79.3578 29.4465 80.6134 29.4465 82.1563C29.4465 83.6991 28.1909 84.9547 26.648 84.9547ZM26.648 80.0458C25.4836 80.0458 24.5376 80.9918 24.5376 82.1563C24.5376 83.3207 25.4836 84.2667 26.648 84.2667C27.8125 84.2667 28.7585 83.3207 28.7585 82.1563C28.7585 80.9918 27.8125 80.0458 26.648 80.0458ZM134.895 144.745C133.524 144.745 132.407 143.629 132.407 142.258C132.407 140.887 133.524 139.771 134.895 139.771C136.265 139.771 137.382 140.887 137.382 142.258C137.382 143.629 136.265 144.745 134.895 144.745ZM134.895 140.457C133.902 140.457 133.095 141.264 133.095 142.257C133.095 143.249 133.902 144.056 134.895 144.056C135.887 144.056 136.694 143.249 136.694 142.257C136.694 141.264 135.887 140.457 134.895 140.457ZM82.4896 28.7107C80.7627 28.7107 79.3574 27.3055 79.3574 25.5786C79.3574 23.8517 80.7627 22.4448 82.4896 22.4448C84.2164 22.4448 85.6217 23.85 85.6217 25.5786C85.6217 27.3072 84.2164 28.7107 82.4896 28.7107ZM82.4896 23.1328C81.1411 23.1328 80.0454 24.2301 80.0454 25.5786C80.0454 26.9271 81.1428 28.0227 82.4896 28.0227C83.8363 28.0227 84.9337 26.9254 84.9337 25.5786C84.9337 24.2318 83.8363 23.1328 82.4896 23.1328Z" fill="#B1BEC6"/>
<g opacity="0.25">
<path d="M121.625 70.3152C122.537 70.1776 123.428 69.9437 124.282 69.6255C123.426 69.9437 122.537 70.1776 121.625 70.3152Z" fill="#B1BEC6"/>
</g>
<g opacity="0.25">
<path opacity="0.5" d="M30.3118 37.4824H52.6546C57.0888 37.4824 61.105 39.2678 64.0273 42.1574L66.8842 39.4484C68.9877 37.4515 71.781 36.3369 74.6827 36.3369H147.676C149.733 35.5165 151.584 34.285 153.125 32.7456C156.051 29.8181 157.862 25.7761 157.862 21.3093C157.862 12.3773 150.619 5.13611 141.689 5.13611H30.3118C25.845 5.13611 21.803 6.94727 18.8756 9.87299C15.9498 12.8004 14.1387 16.8424 14.1387 21.3093C14.1387 30.2412 21.3816 37.4824 30.3118 37.4824Z" fill="#B1BEC6"/>
</g>
<g opacity="0.25">
<path opacity="0.5" d="M141.689 134.521H122.951C121.883 134.797 120.775 134.941 119.65 134.941H62.9935C58.3513 142.034 50.3344 146.723 41.2235 146.723C33.1756 146.723 25.9809 143.066 21.213 137.323C20.3737 137.896 19.5911 138.544 18.8756 139.26C15.9498 142.186 14.1387 146.228 14.1387 150.694C14.1387 159.628 21.3816 166.868 30.3118 166.868H141.689C146.156 166.868 150.198 165.056 153.125 162.131C156.051 159.205 157.862 155.161 157.862 150.694C157.862 141.763 150.619 134.523 141.689 134.523V134.521Z" fill="#B1BEC6"/>
</g>
<g opacity="0.25">
<path d="M24.2727 101.007C28.2218 97.6084 33.2012 95.3758 38.6777 94.8443V69.8252H30.3099C25.843 69.8252 21.801 71.6364 18.8736 74.5621C15.9479 77.4895 14.1367 81.535 14.1367 85.9984C14.1367 92.7975 18.3318 98.6146 24.2727 101.007Z" fill="#B1BEC6"/>
</g>
<g opacity="0.25">
<path d="M151.779 73.3622V98.6393C152.251 98.2626 152.699 97.8618 153.124 97.437C156.05 94.5096 157.861 90.4676 157.861 86.0007C157.861 80.8854 155.486 76.3257 151.779 73.3622Z" fill="#B1BEC6"/>
</g>
</svg>
